<svg id="svg" version="1.1" xmlns="http://www.w3.org/2000/svg" xmlns:xlink="http://www.w3.org/1999/xlink" width="512" height="512" viewBox="0, 0, 400,400"><g id="svgg"><path id="path0" d="M192.826 156.655 C 163.258 159.997,145.954 191.495,159.250 217.773 C 171.183 241.360,203.721 248.043,224.092 231.092 L 226.114 229.409 218.765 222.096 L 211.416 214.782 209.555 216.202 C 195.757 226.734,175.343 216.126,175.400 198.453 C 175.457 181.041,195.634 170.523,209.227 180.819 L 211.228 182.334 218.505 175.050 C 226.966 166.580,226.390 167.739,223.340 165.313 C 214.937 158.628,203.665 155.430,192.826 156.655 M91.797 198.890 L 91.797 240.749 99.707 240.493 C 104.058 240.352,108.979 240.236,110.645 240.235 L 113.672 240.234 113.672 226.467 L 113.672 212.699 127.443 226.467 L 141.215 240.234 155.469 240.234 L 169.724 240.234 148.724 219.232 L 127.724 198.229 148.357 177.630 L 168.991 157.031 154.723 157.031 L 140.455 157.031 127.161 170.215 L 113.867 183.398 113.764 170.215 L 113.661 157.031 102.729 157.031 L 91.797 157.031 91.797 198.890 M245.926 188.114 C 245.200 188.840,245.118 190.664,245.781 191.328 C 246.482 192.029,248.229 191.894,248.963 191.083 C 250.262 189.647,249.362 187.500,247.461 187.500 C 246.955 187.500,246.264 187.776,245.926 188.114 M277.567 188.114 C 276.841 188.840,276.758 190.664,277.422 191.328 C 278.122 192.029,279.869 191.894,280.604 191.083 C 281.903 189.647,281.003 187.500,279.102 187.500 C 278.595 187.500,277.905 187.776,277.567 188.114 M193.039 188.770 C 193.118 189.322,193.478 189.693,194.010 189.769 C 195.781 190.021,195.908 206.225,194.143 206.641 C 193.607 206.767,193.110 207.170,193.040 207.537 C 192.922 208.146,193.547 208.203,200.311 208.203 L 207.710 208.203 208.750 205.806 C 209.322 204.488,209.740 203.362,209.680 203.304 C 209.081 202.730,208.034 203.187,206.736 204.590 L 205.198 206.250 202.013 206.250 L 198.828 206.250 198.828 199.268 C 198.828 190.726,198.955 189.928,200.337 189.768 C 201.062 189.684,201.404 189.388,201.492 188.770 C 201.615 187.903,201.555 187.891,197.266 187.891 C 192.977 187.891,192.916 187.903,193.039 188.770 M267.776 191.387 C 267.498 193.412,267.116 193.961,265.820 194.202 C 264.407 194.464,264.822 195.915,266.279 195.803 L 267.519 195.708 267.646 201.135 C 267.808 208.051,269.024 209.595,273.217 208.212 C 275.155 207.572,275.187 206.250,273.264 206.250 C 271.123 206.250,270.703 205.275,270.703 200.304 L 270.703 196.094 272.461 196.094 C 274.076 196.094,274.219 196.014,274.219 195.117 C 274.219 194.220,274.076 194.141,272.461 194.141 L 270.703 194.141 270.703 191.797 L 270.703 189.453 269.373 189.453 C 268.074 189.453,268.036 189.500,267.776 191.387 M215.020 194.279 C 212.339 195.493,210.626 198.905,211.102 202.081 C 212.425 210.901,225.817 210.048,225.773 201.146 C 225.746 195.747,219.949 192.045,215.020 194.279 M231.936 194.199 C 228.554 195.145,227.446 198.755,229.738 201.365 C 230.933 202.726,230.944 202.775,230.242 203.550 C 229.816 204.021,229.561 204.820,229.614 205.517 C 229.668 206.218,229.385 207.097,228.914 207.696 C 226.318 210.996,228.881 214.539,233.839 214.501 C 243.542 214.427,246.018 206.223,236.563 205.472 C 231.857 205.098,230.232 203.125,234.631 203.125 C 238.136 203.125,240.625 201.167,240.625 198.408 C 240.625 197.590,240.449 196.812,240.234 196.680 C 239.415 196.173,239.899 195.703,241.238 195.703 C 242.461 195.703,242.617 195.595,242.508 194.824 C 242.377 193.905,242.508 193.929,238.672 194.136 C 237.920 194.176,236.426 194.115,235.352 194.000 C 234.277 193.884,232.740 193.974,231.936 194.199 M247.656 193.967 C 247.334 194.034,246.411 194.196,245.605 194.328 C 243.918 194.603,243.695 195.375,245.117 196.023 C 246.083 196.463,246.094 196.521,246.094 201.351 C 246.094 206.235,246.094 206.235,245.117 206.480 C 242.448 207.150,244.000 208.203,247.656 208.203 C 251.402 208.203,252.707 207.205,250.206 206.254 C 249.243 205.888,249.239 205.863,249.131 199.948 C 249.025 194.083,248.931 193.703,247.656 193.967 M255.592 194.297 C 251.720 196.057,252.766 200.128,257.603 202.125 C 260.473 203.310,261.270 204.693,259.833 205.994 C 258.095 207.567,254.688 206.385,254.688 204.210 C 254.688 203.730,254.386 203.516,253.711 203.516 C 252.130 203.516,252.219 207.665,253.809 208.074 C 262.873 210.408,267.624 203.081,259.462 199.355 C 256.349 197.933,255.797 197.242,256.849 196.079 C 258.035 194.769,260.683 195.415,261.110 197.119 C 261.257 197.705,261.628 198.047,262.117 198.047 C 263.002 198.047,263.286 194.822,262.447 194.303 C 261.518 193.729,256.850 193.725,255.592 194.297 M288.867 194.294 C 282.551 197.061,283.782 206.390,290.692 208.130 C 293.416 208.816,296.875 207.515,296.875 205.805 C 296.875 204.934,296.651 204.941,294.297 205.889 C 291.601 206.975,287.891 203.616,287.891 200.090 C 287.891 196.253,291.499 194.436,294.276 196.875 C 296.174 198.541,296.875 198.430,296.875 196.464 C 296.875 194.025,292.308 192.787,288.867 194.294 M301.294 194.484 C 297.772 196.711,298.455 199.667,302.997 201.853 C 306.366 203.475,307.211 204.581,306.056 205.858 C 304.512 207.564,300.781 206.537,300.781 204.406 C 300.781 203.583,299.825 202.946,299.183 203.342 C 298.533 203.744,298.758 207.702,299.446 207.966 C 301.150 208.620,306.523 208.205,307.840 207.317 C 311.358 204.946,310.213 201.631,304.989 199.058 C 302.967 198.062,302.539 197.682,302.539 196.884 C 302.539 194.782,306.217 194.930,307.029 197.066 C 307.708 198.851,308.984 198.359,308.984 196.312 C 308.984 194.196,308.879 194.126,305.358 193.887 C 302.992 193.727,302.339 193.823,301.294 194.484 M276.660 194.416 C 275.493 194.641,275.543 195.469,276.758 196.023 C 278.311 196.730,278.285 205.874,276.727 206.584 C 274.852 207.438,275.841 208.001,279.426 208.121 C 283.151 208.245,284.014 207.518,281.836 206.091 C 280.869 205.457,280.859 205.397,280.859 199.796 L 280.859 194.141 279.199 194.194 C 278.286 194.223,277.144 194.323,276.660 194.416 M221.132 196.828 C 223.768 199.679,222.359 205.821,218.919 206.480 C 215.350 207.164,213.048 200.435,215.699 197.065 C 217.298 195.033,219.387 194.942,221.132 196.828 M236.374 196.052 C 237.752 197.168,237.661 199.761,236.200 201.018 C 234.827 202.199,234.190 202.194,232.990 200.994 C 230.226 198.231,233.378 193.627,236.374 196.052 M237.135 208.047 C 241.063 208.625,239.320 212.500,235.132 212.500 C 231.995 212.500,230.381 210.399,231.877 208.263 C 232.407 207.507,232.742 207.402,234.026 207.590 C 234.862 207.712,236.262 207.918,237.135 208.047 " stroke="none" fill="#882c38" fill-rule="evenodd"></path><path id="path1" d="M0.000 200.000 L 0.000 400.000 200.000 400.000 L 400.000 400.000 400.000 200.000 L 400.000 0.000 200.000 0.000 L 0.000 0.000 0.000 200.000 M207.802 157.435 C 214.011 159.063,220.326 162.361,224.993 166.410 L 226.352 167.590 218.889 175.054 L 211.426 182.517 209.023 180.886 C 190.781 168.497,168.064 188.306,177.810 208.103 C 183.842 220.354,199.569 223.961,210.250 215.541 L 211.320 214.697 217.086 220.312 C 220.257 223.400,223.643 226.696,224.609 227.638 L 226.367 229.349 224.805 230.726 C 211.163 242.744,189.320 244.136,173.842 233.973 C 140.925 212.358,152.294 162.766,191.602 156.504 C 194.690 156.012,204.535 156.578,207.802 157.435 M158.984 167.326 C 153.076 173.190,143.672 182.597,138.086 188.232 L 127.930 198.477 149.023 219.338 L 170.117 240.199 155.631 240.217 L 141.145 240.234 127.506 226.789 L 113.867 213.344 113.765 226.985 L 113.662 240.625 102.729 240.625 L 91.797 240.625 91.797 199.446 C 91.797 176.798,91.690 157.989,91.560 157.649 C 91.347 157.095,92.468 157.031,102.497 157.031 L 113.672 157.031 113.672 170.214 L 113.672 183.397 127.050 170.019 L 140.428 156.641 155.077 156.652 L 169.727 156.664 158.984 167.326 M248.741 187.717 C 250.549 188.984,249.429 192.188,247.179 192.188 C 245.159 192.188,244.345 189.604,245.881 188.068 C 246.998 186.951,247.550 186.883,248.741 187.717 M280.382 187.717 C 282.408 189.137,280.778 192.644,278.373 192.040 C 276.423 191.551,276.200 188.596,278.032 187.529 C 278.970 186.982,279.379 187.015,280.382 187.717 M201.563 188.867 C 201.563 189.681,201.376 189.844,200.447 189.844 L 199.332 189.844 199.053 197.649 C 198.729 206.691,198.602 206.250,201.527 206.250 C 204.547 206.250,205.870 205.728,206.984 204.096 C 208.977 201.177,210.419 202.826,208.736 206.099 L 207.617 208.276 201.172 208.284 C 192.347 208.295,192.892 208.359,193.039 207.324 C 193.130 206.682,193.469 206.411,194.296 206.316 L 195.427 206.187 195.175 202.056 C 195.036 199.784,194.922 196.119,194.922 193.910 L 194.922 189.896 193.848 189.772 C 193.047 189.680,192.762 189.424,192.729 188.770 C 192.686 187.907,192.768 187.891,197.124 187.891 L 201.563 187.891 201.563 188.867 M271.015 191.699 L 271.131 194.141 272.675 194.141 C 274.061 194.141,274.219 194.240,274.219 195.117 C 274.219 196.075,273.724 196.278,271.582 196.199 C 271.218 196.185,271.094 197.357,271.094 200.811 C 271.094 205.889,271.458 206.635,273.669 206.080 C 274.473 205.879,274.609 205.985,274.609 206.815 C 274.609 208.802,270.288 209.386,268.537 207.635 C 267.613 206.711,267.578 206.482,267.578 201.385 L 267.578 196.094 266.211 196.094 C 264.351 196.094,264.160 194.353,265.976 193.954 C 267.113 193.704,267.562 192.914,267.573 191.141 C 267.593 187.910,270.859 188.439,271.015 191.699 M220.508 193.797 C 227.623 195.767,227.867 205.903,220.855 208.218 C 215.565 209.963,210.641 205.965,211.006 200.223 C 211.327 195.190,215.456 192.397,220.508 193.797 M262.389 194.173 C 263.866 194.734,263.562 197.797,262.012 197.975 C 261.166 198.072,260.938 197.937,260.938 197.339 C 260.938 195.400,256.941 194.996,256.718 196.913 C 256.613 197.820,256.861 198.040,259.062 198.991 C 266.402 202.162,265.054 208.594,257.049 208.594 C 253.199 208.594,252.734 208.259,252.734 205.478 C 252.734 202.463,254.205 201.927,255.020 204.646 C 255.524 206.329,256.634 206.876,258.647 206.434 C 261.487 205.810,260.632 203.718,256.796 201.906 C 249.367 198.396,254.572 191.200,262.389 194.173 M294.135 193.782 C 296.413 194.307,297.266 195.113,297.266 196.740 C 297.266 198.297,295.920 198.584,294.740 197.280 C 292.076 194.337,288.279 196.093,288.283 200.267 C 288.286 204.340,292.366 207.254,295.244 205.239 C 296.375 204.446,297.360 204.803,297.195 205.945 C 296.864 208.252,292.046 209.279,289.026 207.685 C 280.592 203.233,284.851 191.643,294.135 193.782 M307.910 193.990 C 309.205 194.246,309.580 197.735,308.363 198.202 C 307.601 198.494,307.031 198.180,307.031 197.466 C 307.031 195.937,303.784 195.024,302.755 196.264 C 301.998 197.176,302.858 198.187,305.066 198.981 C 312.998 201.833,310.715 209.069,302.058 208.517 C 299.062 208.327,298.729 208.019,298.675 205.394 C 298.618 202.616,300.361 201.990,301.001 204.558 C 301.448 206.352,303.122 207.060,305.037 206.267 C 307.377 205.298,306.723 203.806,303.237 202.167 C 299.338 200.332,298.334 198.814,299.374 196.324 C 300.432 193.792,303.155 193.047,307.910 193.990 M238.086 194.090 C 238.301 194.088,239.443 194.055,240.625 194.016 C 242.675 193.949,242.773 193.990,242.773 194.922 C 242.773 195.788,242.609 195.898,241.328 195.898 C 240.414 195.898,240.018 196.035,240.253 196.270 C 240.844 196.859,240.684 200.132,240.019 201.082 C 239.147 202.327,238.032 202.841,235.156 203.326 C 231.304 203.976,231.686 204.812,235.985 205.140 C 242.406 205.629,244.631 208.891,240.914 212.366 C 234.986 217.908,224.531 213.566,228.929 207.389 C 229.439 206.673,229.648 205.960,229.492 205.467 C 229.333 204.968,229.534 204.314,230.046 203.663 L 230.848 202.643 229.906 201.901 C 225.711 198.601,229.008 193.610,235.156 193.953 C 236.553 194.030,237.871 194.092,238.086 194.090 M249.522 199.916 L 249.630 205.887 250.625 206.265 C 251.266 206.509,251.573 206.885,251.489 207.325 C 251.256 208.543,244.036 208.557,244.209 207.339 C 244.291 206.760,244.645 206.401,245.215 206.320 C 246.809 206.094,246.281 196.685,244.639 196.060 C 242.303 195.172,244.685 193.740,248.242 193.894 L 249.414 193.945 249.522 199.916 M281.163 199.942 C 281.264 205.535,281.323 205.952,282.042 206.140 C 282.537 206.269,282.813 206.674,282.813 207.272 C 282.813 208.185,282.742 208.203,279.270 208.203 C 275.819 208.203,275.730 208.180,275.852 207.324 C 275.933 206.755,276.291 206.401,276.867 206.319 C 277.746 206.194,277.756 206.127,277.649 201.441 L 277.539 196.689 276.465 196.175 C 274.168 195.075,276.163 193.746,279.883 193.898 L 281.055 193.945 281.163 199.942 M216.663 196.146 C 214.255 197.545,214.309 204.528,216.738 205.828 C 219.487 207.299,222.266 204.886,222.266 201.028 C 222.266 196.928,219.485 194.505,216.663 196.146 M232.639 196.571 C 231.175 198.662,232.447 201.543,234.841 201.557 C 236.882 201.568,238.005 197.806,236.395 196.350 C 235.348 195.402,233.377 195.518,232.639 196.571 M231.777 208.645 C 230.421 211.670,234.846 213.682,238.127 211.532 C 239.148 210.863,239.379 209.343,238.563 208.666 C 237.354 207.662,232.225 207.646,231.777 208.645 " stroke="none" fill="#fbfbfb" fill-rule="evenodd"></path><path id="path2" d="M157.217 168.848 L 154.102 172.070 157.324 168.954 C 159.097 167.241,160.547 165.791,160.547 165.732 C 160.547 165.447,160.111 165.855,157.217 168.848 M166.797 168.945 C 165.848 169.912,165.160 170.703,165.267 170.703 C 165.374 170.703,166.239 169.912,167.188 168.945 C 168.136 167.979,168.825 167.188,168.717 167.188 C 168.610 167.188,167.746 167.979,166.797 168.945 M137.302 188.770 L 127.539 198.633 137.402 188.870 C 146.568 179.798,147.442 178.906,147.165 178.906 C 147.110 178.906,142.671 183.345,137.302 188.770 M270.828 191.797 C 270.828 193.193,270.899 193.765,270.986 193.066 C 271.072 192.368,271.072 191.226,270.986 190.527 C 270.899 189.829,270.828 190.400,270.828 191.797 M217.676 193.629 C 218.052 193.727,218.667 193.727,219.043 193.629 C 219.419 193.530,219.111 193.450,218.359 193.450 C 217.607 193.450,217.300 193.530,217.676 193.629 M291.113 193.629 C 291.489 193.727,292.104 193.727,292.480 193.629 C 292.856 193.530,292.549 193.450,291.797 193.450 C 291.045 193.450,290.737 193.530,291.113 193.629 M249.217 199.725 L 249.411 205.664 249.522 200.031 C 249.582 196.932,249.495 194.260,249.328 194.092 C 249.160 193.924,249.111 196.459,249.217 199.725 M198.919 197.656 C 198.919 198.408,198.999 198.716,199.097 198.340 C 199.196 197.964,199.196 197.349,199.097 196.973 C 198.999 196.597,198.919 196.904,198.919 197.656 M270.844 200.000 C 270.844 202.041,270.910 202.876,270.990 201.855 C 271.071 200.835,271.071 199.165,270.990 198.145 C 270.910 197.124,270.844 197.959,270.844 200.000 M154.414 198.828 C 154.414 200.010,154.487 200.493,154.577 199.902 C 154.666 199.312,154.666 198.345,154.577 197.754 C 154.487 197.163,154.414 197.646,154.414 198.828 M245.810 198.438 C 245.810 199.404,245.886 199.800,245.979 199.316 C 246.072 198.833,246.072 198.042,245.979 197.559 C 245.886 197.075,245.810 197.471,245.810 198.438 M195.034 199.023 C 195.037 200.098,195.112 200.491,195.202 199.897 C 195.292 199.303,195.290 198.424,195.197 197.944 C 195.104 197.463,195.031 197.949,195.034 199.023 M281.002 201.758 C 281.003 203.906,281.069 204.735,281.148 203.600 C 281.227 202.465,281.226 200.707,281.146 199.694 C 281.066 198.681,281.001 199.609,281.002 201.758 M195.020 208.472 C 195.396 208.571,196.011 208.571,196.387 208.472 C 196.763 208.374,196.455 208.294,195.703 208.294 C 194.951 208.294,194.644 208.374,195.020 208.472 M180.469 212.622 C 180.469 212.689,181.040 213.261,181.738 213.892 L 183.008 215.039 181.861 213.770 C 180.791 212.586,180.469 212.320,180.469 212.622 M121.094 220.508 C 125.064 224.482,128.400 227.734,128.508 227.734 C 128.615 227.734,125.455 224.482,121.484 220.508 C 117.514 216.533,114.178 213.281,114.070 213.281 C 113.963 213.281,117.123 216.533,121.094 220.508 M150.391 220.898 C 152.207 222.725,153.782 224.219,153.889 224.219 C 153.996 224.219,152.598 222.725,150.781 220.898 C 148.965 219.072,147.390 217.578,147.283 217.578 C 147.175 217.578,148.574 219.072,150.391 220.898 M157.813 228.320 C 159.629 230.146,161.203 231.641,161.311 231.641 C 161.418 231.641,160.020 230.146,158.203 228.320 C 156.386 226.494,154.812 225.000,154.705 225.000 C 154.597 225.000,155.996 226.494,157.813 228.320 M223.828 227.148 C 224.995 228.330,226.038 229.297,226.145 229.297 C 226.253 229.297,225.386 228.330,224.219 227.148 C 223.052 225.967,222.009 225.000,221.902 225.000 C 221.794 225.000,222.661 225.967,223.828 227.148 M108.496 240.520 C 109.409 240.603,110.903 240.603,111.816 240.520 C 112.729 240.438,111.982 240.371,110.156 240.371 C 108.330 240.371,107.583 240.438,108.496 240.520 M195.605 240.908 C 196.304 240.994,197.446 240.994,198.145 240.908 C 198.843 240.821,198.271 240.750,196.875 240.750 C 195.479 240.750,194.907 240.821,195.605 240.908 " stroke="none" fill="#bf9da1" fill-rule="evenodd"></path><path id="path3" d="M127.341 169.824 L 114.648 182.617 127.441 169.924 C 139.331 158.128,140.410 157.031,140.134 157.031 C 140.080 157.031,134.323 162.788,127.341 169.824 M165.612 160.449 L 163.477 162.695 165.723 160.560 C 167.809 158.577,168.148 158.203,167.858 158.203 C 167.797 158.203,166.786 159.214,165.612 160.449 M221.478 172.168 L 216.992 176.758 221.582 172.272 C 225.845 168.105,226.349 167.578,226.068 167.578 C 226.011 167.578,223.945 169.644,221.478 172.168 M198.927 192.773 C 198.931 193.633,199.011 193.938,199.104 193.452 C 199.198 192.967,199.194 192.263,199.097 191.890 C 198.999 191.517,198.922 191.914,198.927 192.773 M195.039 194.922 C 195.039 196.104,195.112 196.587,195.202 195.996 C 195.291 195.405,195.291 194.438,195.202 193.848 C 195.112 193.257,195.039 193.740,195.039 194.922 M302.246 208.479 C 302.729 208.572,303.521 208.572,304.004 208.479 C 304.487 208.386,304.092 208.310,303.125 208.310 C 302.158 208.310,301.763 208.386,302.246 208.479 M166.797 237.305 C 168.181 238.701,169.401 239.844,169.509 239.844 C 169.616 239.844,168.572 238.701,167.188 237.305 C 165.803 235.908,164.583 234.766,164.476 234.766 C 164.368 234.766,165.413 235.908,166.797 237.305 M103.418 240.517 C 104.116 240.604,105.259 240.604,105.957 240.517 C 106.655 240.430,106.084 240.359,104.688 240.359 C 103.291 240.359,102.720 240.430,103.418 240.517 " stroke="none" fill="#a87c84" fill-rule="evenodd"></path><path id="path4" d="M148.901 156.933 C 152.486 156.997,158.462 156.997,162.182 156.933 C 165.902 156.869,162.969 156.816,155.664 156.816 C 148.359 156.816,145.316 156.868,148.901 156.933 M214.233 179.395 L 213.086 180.664 214.355 179.517 C 215.054 178.886,215.625 178.314,215.625 178.247 C 215.625 177.945,215.303 178.211,214.233 179.395 M198.919 195.313 C 198.919 196.064,198.999 196.372,199.097 195.996 C 199.196 195.620,199.196 195.005,199.097 194.629 C 198.999 194.253,198.919 194.561,198.919 195.313 M280.958 195.898 C 280.962 196.758,281.042 197.063,281.136 196.577 C 281.229 196.092,281.226 195.388,281.128 195.015 C 281.030 194.642,280.954 195.039,280.958 195.898 " stroke="none" fill="#a4888c" fill-rule="evenodd"></path></g></svg>
